<svg width="342" height="94" viewBox="0 0 342 94" fill="none" xmlns="http://www.w3.org/2000/svg">
<mask id="path-1-outside-1_6_8" maskUnits="userSpaceOnUse" x="0" y="0" width="342" height="94" fill="black">
<rect fill="white" width="342" height="94"/>
<path d="M11.8 81V13.8H20.44L35.8 45.768L51.16 13.8H59.8V81H51.928V29.352L38.872 56.52H32.728L19.672 29.448V81H11.8ZM93.3625 82.152C88.8825 82.152 84.9145 81.128 81.4585 79.08C78.0025 77.032 75.2825 74.152 73.2985 70.44C71.3145 66.664 70.3225 62.248 70.3225 57.192C70.3225 52.136 71.3145 47.752 73.2985 44.04C75.2825 40.264 78.0025 37.352 81.4585 35.304C84.9145 33.256 88.8825 32.232 93.3625 32.232C97.8425 32.232 101.811 33.256 105.267 35.304C108.723 37.352 111.443 40.264 113.427 44.04C115.411 47.752 116.403 52.136 116.403 57.192C116.403 62.248 115.411 66.664 113.427 70.44C111.443 74.152 108.723 77.032 105.267 79.08C101.811 81.128 97.8425 82.152 93.3625 82.152ZM93.3625 74.472C96.1145 74.472 98.6105 73.864 100.851 72.648C103.091 71.432 104.851 69.544 106.131 66.984C107.475 64.424 108.147 61.16 108.147 57.192C108.147 53.224 107.475 49.96 106.131 47.4C104.851 44.84 103.091 42.952 100.851 41.736C98.6105 40.52 96.1145 39.912 93.3625 39.912C90.6745 39.912 88.2105 40.52 85.9705 41.736C83.7305 42.952 81.9385 44.84 80.5945 47.4C79.2505 49.96 78.5785 53.224 78.5785 57.192C78.5785 63.144 80.0185 67.528 82.8985 70.344C85.7785 73.096 89.2665 74.472 93.3625 74.472ZM152.557 82.152C148.909 82.152 145.805 81.416 143.245 79.944C140.749 78.408 138.893 76.328 137.677 73.704H137.101L136.237 81H129.613V11.88H137.677V40.2C138.893 38.088 140.781 36.232 143.341 34.632C145.965 33.032 149.037 32.232 152.557 32.232C156.653 32.232 160.269 33.192 163.405 35.112C166.541 37.032 169.005 39.848 170.797 43.56C172.589 47.272 173.485 51.784 173.485 57.096C173.485 62.472 172.589 67.048 170.797 70.824C169.005 74.536 166.509 77.352 163.309 79.272C160.173 81.192 156.589 82.152 152.557 82.152ZM151.501 74.472C155.533 74.472 158.829 73.064 161.389 70.248C164.013 67.368 165.325 63.016 165.325 57.192C165.325 51.368 164.013 47.048 161.389 44.232C158.829 41.352 155.533 39.912 151.501 39.912C147.469 39.912 144.141 41.352 141.517 44.232C138.893 47.048 137.581 51.368 137.581 57.192C137.581 63.016 138.893 67.368 141.517 70.248C144.141 73.064 147.469 74.472 151.501 74.472ZM207.911 24.936C205.991 24.936 204.392 24.296 203.112 23.016C201.832 21.736 201.192 20.2 201.192 18.408C201.192 16.552 201.832 15.016 203.112 13.8C204.392 12.52 205.991 11.88 207.911 11.88C209.768 11.88 211.336 12.52 212.616 13.8C213.96 15.016 214.632 16.552 214.632 18.408C214.632 20.2 213.96 21.736 212.616 23.016C211.336 24.296 209.768 24.936 207.911 24.936ZM189.288 81V74.088H204.456V42.696C204.456 41.096 203.656 40.296 202.056 40.296H190.92V33.384H203.976C209.672 33.384 212.52 36.232 212.52 41.928V74.088H227.688V81H189.288ZM245.698 81V33.384H252.418L253.282 40.584H253.762C255.042 38.28 257.058 36.328 259.81 34.728C262.562 33.064 265.73 32.232 269.314 32.232C275.138 32.232 279.49 33.96 282.37 37.416C285.314 40.872 286.786 45.864 286.786 52.392V81H278.722V53.352C278.722 49.128 277.794 45.832 275.938 43.464C274.082 41.032 271.202 39.816 267.298 39.816C263.522 39.816 260.322 41.128 257.698 43.752C255.074 46.312 253.762 50.024 253.762 54.888V81H245.698ZM323.613 81.192C321.629 81.192 319.933 80.52 318.525 79.176C317.117 77.832 316.413 76.168 316.413 74.184C316.413 72.264 317.117 70.632 318.525 69.288C319.933 67.944 321.629 67.272 323.613 67.272C325.597 67.272 327.293 67.944 328.701 69.288C330.109 70.632 330.813 72.264 330.813 74.184C330.813 76.168 330.109 77.832 328.701 79.176C327.293 80.52 325.597 81.192 323.613 81.192Z"/>
</mask>
<path d="M11.8 81V13.8H20.44L35.8 45.768L51.16 13.8H59.8V81H51.928V29.352L38.872 56.52H32.728L19.672 29.448V81H11.8ZM93.3625 82.152C88.8825 82.152 84.9145 81.128 81.4585 79.08C78.0025 77.032 75.2825 74.152 73.2985 70.44C71.3145 66.664 70.3225 62.248 70.3225 57.192C70.3225 52.136 71.3145 47.752 73.2985 44.04C75.2825 40.264 78.0025 37.352 81.4585 35.304C84.9145 33.256 88.8825 32.232 93.3625 32.232C97.8425 32.232 101.811 33.256 105.267 35.304C108.723 37.352 111.443 40.264 113.427 44.04C115.411 47.752 116.403 52.136 116.403 57.192C116.403 62.248 115.411 66.664 113.427 70.44C111.443 74.152 108.723 77.032 105.267 79.08C101.811 81.128 97.8425 82.152 93.3625 82.152ZM93.3625 74.472C96.1145 74.472 98.6105 73.864 100.851 72.648C103.091 71.432 104.851 69.544 106.131 66.984C107.475 64.424 108.147 61.16 108.147 57.192C108.147 53.224 107.475 49.96 106.131 47.4C104.851 44.84 103.091 42.952 100.851 41.736C98.6105 40.52 96.1145 39.912 93.3625 39.912C90.6745 39.912 88.2105 40.52 85.9705 41.736C83.7305 42.952 81.9385 44.84 80.5945 47.4C79.2505 49.96 78.5785 53.224 78.5785 57.192C78.5785 63.144 80.0185 67.528 82.8985 70.344C85.7785 73.096 89.2665 74.472 93.3625 74.472ZM152.557 82.152C148.909 82.152 145.805 81.416 143.245 79.944C140.749 78.408 138.893 76.328 137.677 73.704H137.101L136.237 81H129.613V11.88H137.677V40.2C138.893 38.088 140.781 36.232 143.341 34.632C145.965 33.032 149.037 32.232 152.557 32.232C156.653 32.232 160.269 33.192 163.405 35.112C166.541 37.032 169.005 39.848 170.797 43.56C172.589 47.272 173.485 51.784 173.485 57.096C173.485 62.472 172.589 67.048 170.797 70.824C169.005 74.536 166.509 77.352 163.309 79.272C160.173 81.192 156.589 82.152 152.557 82.152ZM151.501 74.472C155.533 74.472 158.829 73.064 161.389 70.248C164.013 67.368 165.325 63.016 165.325 57.192C165.325 51.368 164.013 47.048 161.389 44.232C158.829 41.352 155.533 39.912 151.501 39.912C147.469 39.912 144.141 41.352 141.517 44.232C138.893 47.048 137.581 51.368 137.581 57.192C137.581 63.016 138.893 67.368 141.517 70.248C144.141 73.064 147.469 74.472 151.501 74.472ZM207.911 24.936C205.991 24.936 204.392 24.296 203.112 23.016C201.832 21.736 201.192 20.2 201.192 18.408C201.192 16.552 201.832 15.016 203.112 13.8C204.392 12.52 205.991 11.88 207.911 11.88C209.768 11.88 211.336 12.52 212.616 13.8C213.96 15.016 214.632 16.552 214.632 18.408C214.632 20.2 213.96 21.736 212.616 23.016C211.336 24.296 209.768 24.936 207.911 24.936ZM189.288 81V74.088H204.456V42.696C204.456 41.096 203.656 40.296 202.056 40.296H190.92V33.384H203.976C209.672 33.384 212.52 36.232 212.52 41.928V74.088H227.688V81H189.288ZM245.698 81V33.384H252.418L253.282 40.584H253.762C255.042 38.28 257.058 36.328 259.81 34.728C262.562 33.064 265.73 32.232 269.314 32.232C275.138 32.232 279.49 33.96 282.37 37.416C285.314 40.872 286.786 45.864 286.786 52.392V81H278.722V53.352C278.722 49.128 277.794 45.832 275.938 43.464C274.082 41.032 271.202 39.816 267.298 39.816C263.522 39.816 260.322 41.128 257.698 43.752C255.074 46.312 253.762 50.024 253.762 54.888V81H245.698ZM323.613 81.192C321.629 81.192 319.933 80.52 318.525 79.176C317.117 77.832 316.413 76.168 316.413 74.184C316.413 72.264 317.117 70.632 318.525 69.288C319.933 67.944 321.629 67.272 323.613 67.272C325.597 67.272 327.293 67.944 328.701 69.288C330.109 70.632 330.813 72.264 330.813 74.184C330.813 76.168 330.109 77.832 328.701 79.176C327.293 80.52 325.597 81.192 323.613 81.192Z" fill="white"/>
<path d="M11.8 81H0.8V92H11.8V81ZM11.8 13.8V2.8H0.8V13.8H11.8ZM20.44 13.8L30.3549 9.03608L27.3586 2.8H20.44V13.8ZM35.8 45.768L25.8851 50.5319L35.8 71.1673L45.7149 50.5319L35.8 45.768ZM51.16 13.8V2.8H44.2414L41.2451 9.03608L51.16 13.8ZM59.8 13.8H70.8V2.8H59.8V13.8ZM59.8 81V92H70.8V81H59.8ZM51.928 81H40.928V92H51.928V81ZM51.928 29.352H62.928L42.0134 24.5874L51.928 29.352ZM38.872 56.52V67.52H45.7901L48.7866 61.2846L38.872 56.52ZM32.728 56.52L22.82 61.2983L25.8206 67.52H32.728V56.52ZM19.672 29.448L29.58 24.6697L8.672 29.448H19.672ZM19.672 81V92H30.672V81H19.672ZM11.8 81H22.8V13.8H11.8H0.8V81H11.8ZM11.8 13.8V24.8H20.44V13.8V2.8H11.8V13.8ZM20.44 13.8L10.5251 18.5639L25.8851 50.5319L35.8 45.768L45.7149 41.0041L30.3549 9.03608L20.44 13.8ZM35.8 45.768L45.7149 50.5319L61.0749 18.5639L51.16 13.8L41.2451 9.03608L25.8851 41.0041L35.8 45.768ZM51.16 13.8V24.8H59.8V13.8V2.8H51.16V13.8ZM59.8 13.8H48.8V81H59.8H70.8V13.8H59.8ZM59.8 81V70H51.928V81V92H59.8V81ZM51.928 81H62.928V29.352H51.928H40.928V81H51.928ZM51.928 29.352L42.0134 24.5874L28.9574 51.7554L38.872 56.52L48.7866 61.2846L61.8426 34.1166L51.928 29.352ZM38.872 56.52V45.52H32.728V56.52V67.52H38.872V56.52ZM32.728 56.52L42.636 51.7417L29.58 24.6697L19.672 29.448L9.76404 34.2263L22.82 61.2983L32.728 56.52ZM19.672 29.448H8.672V81H19.672H30.672V29.448H19.672ZM19.672 81V70H11.8V81V92H19.672V81ZM81.4585 79.08L87.0663 69.6168L81.4585 79.08ZM73.2985 70.44L63.5608 75.5564L63.5789 75.5908L63.5973 75.6252L73.2985 70.44ZM73.2985 44.04L82.9997 49.2251L83.0181 49.1908L83.0362 49.1564L73.2985 44.04ZM81.4585 35.304L87.0663 44.7672L87.0663 44.7672L81.4585 35.304ZM105.267 35.304L99.6587 44.7672L105.267 35.304ZM113.426 44.04L103.689 49.1564L103.707 49.1908L103.725 49.2252L113.426 44.04ZM113.426 70.44L123.128 75.6251L123.146 75.5908L123.164 75.5564L113.426 70.44ZM105.267 79.08L110.874 88.5432L105.267 79.08ZM106.131 66.984L96.3911 61.8708L96.3405 61.9672L96.2918 62.0646L106.131 66.984ZM106.131 47.4L96.2918 52.3194L96.3405 52.4168L96.3911 52.5132L106.131 47.4ZM100.851 41.736L95.6025 51.4034L95.6025 51.4034L100.851 41.736ZM85.9705 41.736L91.2185 51.4034V51.4034L85.9705 41.736ZM80.5945 47.4L70.8551 42.2868L70.8551 42.2868L80.5945 47.4ZM82.8985 70.344L75.2082 78.2091L75.2534 78.2532L75.2991 78.2969L82.8985 70.344ZM93.3625 82.152V71.152C90.6227 71.152 88.6348 70.5463 87.0663 69.6168L81.4585 79.08L75.8507 88.5432C81.1942 91.7097 87.1423 93.152 93.3625 93.152V82.152ZM81.4585 79.08L87.0663 69.6168C85.4245 68.6438 84.0832 67.282 82.9997 65.2548L73.2985 70.44L63.5973 75.6252C66.4818 81.022 70.5805 85.4202 75.8507 88.5432L81.4585 79.08ZM73.2985 70.44L83.0362 65.3236C82.022 63.3935 81.3225 60.7948 81.3225 57.192H70.3225H59.3225C59.3225 63.7012 60.607 69.9345 63.5608 75.5564L73.2985 70.44ZM70.3225 57.192H81.3225C81.3225 53.5829 82.0241 51.0505 82.9997 49.2251L73.2985 44.04L63.5973 38.8548C60.6049 44.4535 59.3225 50.6891 59.3225 57.192H70.3225ZM73.2985 44.04L83.0362 49.1564C84.1337 47.0675 85.4726 45.7117 87.0663 44.7672L81.4585 35.304L75.8507 25.8408C70.5324 28.9923 66.4313 33.4605 63.5608 38.9236L73.2985 44.04ZM81.4585 35.304L87.0663 44.7672C88.6348 43.8377 90.6227 43.232 93.3625 43.232V32.232V21.232C87.1423 21.232 81.1942 22.6743 75.8507 25.8408L81.4585 35.304ZM93.3625 32.232V43.232C96.1023 43.232 98.0902 43.8377 99.6587 44.7672L105.267 35.304L110.874 25.8408C105.531 22.6743 99.5827 21.232 93.3625 21.232V32.232ZM105.267 35.304L99.6587 44.7672C101.252 45.7117 102.591 47.0675 103.689 49.1564L113.426 44.04L123.164 38.9236C120.294 33.4605 116.193 28.9923 110.874 25.8408L105.267 35.304ZM113.426 44.04L103.725 49.2252C104.701 51.0505 105.403 53.5829 105.403 57.192H116.403H127.403C127.403 50.6891 126.12 44.4535 123.128 38.8548L113.426 44.04ZM116.403 57.192H105.403C105.403 60.7948 104.703 63.3935 103.689 65.3236L113.426 70.44L123.164 75.5564C126.118 69.9345 127.403 63.7012 127.403 57.192H116.403ZM113.426 70.44L103.725 65.2549C102.642 67.282 101.301 68.6438 99.6587 69.6168L105.267 79.08L110.874 88.5432C116.144 85.4202 120.243 81.022 123.128 75.6251L113.426 70.44ZM105.267 79.08L99.6587 69.6168C98.0902 70.5463 96.1023 71.152 93.3625 71.152V82.152V93.152C99.5827 93.152 105.531 91.7097 110.874 88.5432L105.267 79.08ZM93.3625 74.472V85.472C97.7974 85.472 102.121 84.4749 106.099 82.3154L100.851 72.648L95.6025 62.9806C95.1004 63.2531 94.4316 63.472 93.3625 63.472V74.472ZM100.851 72.648L106.099 82.3154C110.558 79.8945 113.81 76.221 115.969 71.9034L106.131 66.984L96.2918 62.0646C95.8906 62.867 95.6229 62.9695 95.6025 62.9806L100.851 72.648ZM106.131 66.984L115.87 72.0972C118.292 67.4834 119.146 62.3114 119.146 57.192H108.146H97.1465C97.1465 60.0086 96.6569 61.3646 96.3911 61.8708L106.131 66.984ZM108.146 57.192H119.146C119.146 52.0726 118.292 46.9006 115.87 42.2868L106.131 47.4L96.3911 52.5132C96.6569 53.0194 97.1465 54.3754 97.1465 57.192H108.146ZM106.131 47.4L115.969 42.4806C113.81 38.163 110.558 34.4895 106.099 32.0686L100.851 41.736L95.6025 51.4034C95.6229 51.4145 95.8906 51.517 96.2918 52.3194L106.131 47.4ZM100.851 41.736L106.099 32.0686C102.121 29.9091 97.7974 28.912 93.3625 28.912V39.912V50.912C94.4316 50.912 95.1004 51.1308 95.6025 51.4034L100.851 41.736ZM93.3625 39.912V28.912C88.945 28.912 84.662 29.93 80.7225 32.0686L85.9705 41.736L91.2185 51.4034C91.7589 51.11 92.404 50.912 93.3625 50.912V39.912ZM85.9705 41.736L80.7225 32.0686C76.3177 34.4598 73.0715 38.0652 70.8551 42.2868L80.5945 47.4L90.3339 52.5132C90.8055 51.6148 91.1433 51.4442 91.2185 51.4034L85.9705 41.736ZM80.5945 47.4L70.8551 42.2868C68.4329 46.9006 67.5785 52.0726 67.5785 57.192H78.5785H89.5785C89.5785 54.3754 90.0681 53.0194 90.3339 52.5132L80.5945 47.4ZM78.5785 57.192H67.5785C67.5785 64.6937 69.3801 72.5105 75.2082 78.2091L82.8985 70.344L90.5888 62.4789C90.5842 62.4745 90.3589 62.2716 90.1092 61.5113C89.841 60.6949 89.5785 59.3217 89.5785 57.192H78.5785ZM82.8985 70.344L75.2991 78.2969C80.2891 83.0652 86.5245 85.472 93.3625 85.472V74.472V63.472C92.0085 63.472 91.2679 63.1268 90.4979 62.3911L82.8985 70.344ZM143.245 79.944L137.48 89.3122L137.62 89.3982L137.762 89.48L143.245 79.944ZM137.677 73.704L147.657 69.0789L144.703 62.704H137.677V73.704ZM137.101 73.704V62.704H127.327L126.177 72.4104L137.101 73.704ZM136.237 81V92H146.011L147.161 82.2936L136.237 81ZM129.613 81H118.613V92H129.613V81ZM129.613 11.88V0.879997H118.613V11.88H129.613ZM137.677 11.88H148.677V0.879997H137.677V11.88ZM137.677 40.2H126.677V81.3509L147.21 45.6886L137.677 40.2ZM143.341 34.632L137.614 25.2402L137.562 25.2718L137.511 25.304L143.341 34.632ZM163.405 35.112L157.661 44.4934H157.661L163.405 35.112ZM170.797 70.824L180.703 75.6062L180.719 75.5733L180.735 75.5402L170.797 70.824ZM163.309 79.272L157.65 69.8396L157.607 69.8649L157.565 69.8906L163.309 79.272ZM161.389 70.248L153.258 62.8396L153.25 62.8486L161.389 70.248ZM161.389 44.232L153.167 51.54L153.253 51.6365L153.341 51.731L161.389 44.232ZM141.517 44.232L149.565 51.731L149.607 51.6859L149.648 51.6404L141.517 44.232ZM141.517 70.248L133.386 77.6564L133.427 77.7019L133.469 77.747L141.517 70.248ZM152.557 82.152V71.152C150.384 71.152 149.27 70.7194 148.728 70.408L143.245 79.944L137.762 89.48C142.34 92.1126 147.434 93.152 152.557 93.152V82.152ZM143.245 79.944L149.01 70.5758C148.328 70.1563 147.952 69.7144 147.657 69.0789L137.677 73.704L127.697 78.3291C129.834 82.9416 133.17 86.6597 137.48 89.3122L143.245 79.944ZM137.677 73.704V62.704H137.101V73.704V84.704H137.677V73.704ZM137.101 73.704L126.177 72.4104L125.313 79.7064L136.237 81L147.161 82.2936L148.025 74.9976L137.101 73.704ZM136.237 81V70H129.613V81V92H136.237V81ZM129.613 81H140.613V11.88H129.613H118.613V81H129.613ZM129.613 11.88V22.88H137.677V11.88V0.879997H129.613V11.88ZM137.677 11.88H126.677V40.2H137.677H148.677V11.88H137.677ZM137.677 40.2L147.21 45.6886C147.335 45.4712 147.782 44.8282 149.171 43.96L143.341 34.632L137.511 25.304C133.78 27.6358 130.451 30.7048 128.144 34.7114L137.677 40.2ZM143.341 34.632L149.068 44.0238C149.728 43.6213 150.758 43.232 152.557 43.232V32.232V21.232C147.316 21.232 142.202 22.4427 137.614 25.2402L143.341 34.632ZM152.557 32.232V43.232C154.864 43.232 156.446 43.7494 157.661 44.4934L163.405 35.112L169.149 25.7306C164.092 22.6346 158.442 21.232 152.557 21.232V32.232ZM163.405 35.112L157.661 44.4934C158.785 45.1814 159.902 46.2935 160.891 48.3422L170.797 43.56L180.703 38.7778C178.108 33.4025 174.297 28.8826 169.149 25.7306L163.405 35.112ZM170.797 43.56L160.891 48.3422C161.786 50.1967 162.485 52.9788 162.485 57.096H173.485H184.485C184.485 50.5892 183.392 44.3473 180.703 38.7778L170.797 43.56ZM173.485 57.096H162.485C162.485 61.2909 161.782 64.1646 160.859 66.1078L170.797 70.824L180.735 75.5402C183.396 69.9314 184.485 63.6531 184.485 57.096H173.485ZM170.797 70.824L160.891 66.0418C159.93 68.0326 158.821 69.1366 157.65 69.8396L163.309 79.272L168.968 88.7044C174.197 85.5674 178.08 81.0394 180.703 75.6062L170.797 70.824ZM163.309 79.272L157.565 69.8906C156.323 70.6513 154.764 71.152 152.557 71.152V82.152V93.152C158.414 93.152 164.023 91.7327 169.053 88.6534L163.309 79.272ZM151.501 74.472V85.472C158.424 85.472 164.748 82.906 169.528 77.6474L161.389 70.248L153.25 62.8486C152.966 63.1612 152.782 63.255 152.676 63.3003C152.554 63.3521 152.217 63.472 151.501 63.472V74.472ZM161.389 70.248L169.52 77.6564C174.721 71.9484 176.325 64.4329 176.325 57.192H165.325H154.325C154.325 61.5991 153.305 62.7876 153.258 62.8396L161.389 70.248ZM165.325 57.192H176.325C176.325 49.9765 174.731 42.415 169.437 36.733L161.389 44.232L153.341 51.731C153.346 51.7365 153.398 51.7915 153.479 51.9387C153.563 52.0908 153.687 52.3574 153.816 52.7806C154.081 53.6544 154.325 55.0667 154.325 57.192H165.325ZM161.389 44.232L169.611 36.924C164.856 31.5747 158.51 28.912 151.501 28.912V39.912V50.912C152.185 50.912 152.493 51.0282 152.593 51.072C152.681 51.1103 152.868 51.2029 153.167 51.54L161.389 44.232ZM151.501 39.912V28.912C144.496 28.912 138.175 31.5669 133.386 36.8236L141.517 44.232L149.648 51.6404C150.107 51.1371 150.442 50.912 151.501 50.912V39.912ZM141.517 44.232L133.469 36.733C128.175 42.415 126.581 49.9765 126.581 57.192H137.581H148.581C148.581 55.0667 148.825 53.6544 149.09 52.7806C149.219 52.3573 149.343 52.0908 149.427 51.9387C149.508 51.7915 149.56 51.7365 149.565 51.731L141.517 44.232ZM137.581 57.192H126.581C126.581 64.4329 128.185 71.9484 133.386 77.6564L141.517 70.248L149.648 62.8396C149.601 62.7876 148.581 61.5991 148.581 57.192H137.581ZM141.517 70.248L133.469 77.747C138.283 82.9127 144.58 85.472 151.501 85.472V74.472V63.472C150.358 63.472 149.999 63.2153 149.565 62.749L141.517 70.248ZM203.111 23.016L210.89 15.2378L210.89 15.2378L203.111 23.016ZM203.111 13.8L210.688 21.775L210.79 21.6779L210.89 21.5782L203.111 13.8ZM212.616 13.8L204.837 21.5782L205.032 21.7725L205.235 21.9569L212.616 13.8ZM212.616 23.016L205.029 15.0505L204.932 15.143L204.837 15.2378L212.616 23.016ZM189.288 81H178.288V92H189.288V81ZM189.288 74.088V63.088H178.288V74.088H189.288ZM204.456 74.088V85.088H215.456V74.088H204.456ZM190.919 40.296H179.919V51.296H190.919V40.296ZM190.919 33.384V22.384H179.919V33.384H190.919ZM212.52 74.088H201.52V85.088H212.52V74.088ZM227.688 74.088H238.688V63.088H227.688V74.088ZM227.688 81V92H238.688V81H227.688ZM207.911 24.936V13.936C208.191 13.936 208.717 13.9869 209.357 14.2428C210.009 14.5037 210.53 14.8786 210.89 15.2378L203.111 23.016L195.333 30.7942C198.811 34.2719 203.271 35.936 207.911 35.936V24.936ZM203.111 23.016L210.89 15.2378C211.176 15.5239 211.546 16.0025 211.825 16.6732C212.106 17.3462 212.191 17.9646 212.191 18.408H201.191H190.191C190.191 23.1505 192.014 27.4748 195.333 30.7942L203.111 23.016ZM201.191 18.408H212.191C212.191 18.7647 212.125 19.3757 211.825 20.0948C211.521 20.8259 211.089 21.3935 210.688 21.775L203.111 13.8L195.535 5.825C191.947 9.23417 190.191 13.7101 190.191 18.408H201.191ZM203.111 13.8L210.89 21.5782C210.53 21.9374 210.009 22.3122 209.357 22.5732C208.717 22.8291 208.191 22.88 207.911 22.88V11.88V0.879997C203.271 0.879997 198.811 2.54407 195.333 6.02182L203.111 13.8ZM207.911 11.88V22.88C207.551 22.88 206.98 22.8125 206.323 22.5443C205.66 22.2739 205.16 21.901 204.837 21.5782L212.616 13.8L220.394 6.02182C216.993 2.62119 212.602 0.879997 207.911 0.879997V11.88ZM212.616 13.8L205.235 21.9569C204.848 21.6063 204.387 21.0438 204.05 20.273C203.715 19.5085 203.632 18.8343 203.632 18.408H214.632H225.632C225.632 13.5287 223.707 9.00087 219.996 5.6431L212.616 13.8ZM214.632 18.408H203.632C203.632 17.8925 203.736 17.2113 204.05 16.495C204.359 15.7871 204.756 15.3105 205.029 15.0505L212.616 23.016L220.202 30.9815C223.638 27.7088 225.632 23.3294 225.632 18.408H214.632ZM212.616 23.016L204.837 15.2378C205.16 14.915 205.66 14.5421 206.323 14.2717C206.98 14.0035 207.551 13.936 207.911 13.936V24.936V35.936C212.602 35.936 216.993 34.1948 220.394 30.7942L212.616 23.016ZM189.288 81H200.288V74.088H189.288H178.288V81H189.288ZM189.288 74.088V85.088H204.456V74.088V63.088H189.288V74.088ZM204.456 74.088H215.456V42.696H204.456H193.456V74.088H204.456ZM204.456 42.696H215.456C215.456 40.2004 214.824 36.3083 211.634 33.1178C208.443 29.9273 204.551 29.296 202.055 29.296V40.296V51.296C201.16 51.296 198.468 51.0646 196.077 48.6742C193.687 46.2837 193.456 43.5916 193.456 42.696H204.456ZM202.055 40.296V29.296H190.919V40.296V51.296H202.055V40.296ZM190.919 40.296H201.919V33.384H190.919H179.919V40.296H190.919ZM190.919 33.384V44.384H203.975V33.384V22.384H190.919V33.384ZM203.975 33.384V44.384C205.128 44.384 203.972 44.6646 202.605 43.2982C201.239 41.9317 201.52 40.7756 201.52 41.928H212.52H223.52C223.52 37.3844 222.376 31.9563 218.162 27.7418C213.947 23.5273 208.519 22.384 203.975 22.384V33.384ZM212.52 41.928H201.52V74.088H212.52H223.52V41.928H212.52ZM212.52 74.088V85.088H227.688V74.088V63.088H212.52V74.088ZM227.688 74.088H216.688V81H227.688H238.688V74.088H227.688ZM227.688 81V70H189.288V81V92H227.688V81ZM245.698 81H234.698V92H245.698V81ZM245.698 33.384V22.384H234.698V33.384H245.698ZM252.418 33.384L263.34 32.0734L262.177 22.384H252.418V33.384ZM253.282 40.584L242.36 41.8946L243.523 51.584H253.282V40.584ZM253.762 40.584V51.584H260.234L263.378 45.9261L253.762 40.584ZM259.81 34.728L265.339 44.2376L265.421 44.19L265.502 44.1411L259.81 34.728ZM282.37 37.416L273.92 44.458L273.958 44.5038L273.996 44.5491L282.37 37.416ZM286.786 81V92H297.786V81H286.786ZM278.722 81H267.722V92H278.722V81ZM275.938 43.464L267.194 50.1374L267.237 50.1938L267.28 50.2497L275.938 43.464ZM257.698 43.752L265.38 51.6256L265.428 51.5782L265.476 51.5302L257.698 43.752ZM253.762 81V92H264.762V81H253.762ZM245.698 81H256.698V33.384H245.698H234.698V81H245.698ZM245.698 33.384V44.384H252.418V33.384V22.384H245.698V33.384ZM252.418 33.384L241.496 34.6946L242.36 41.8946L253.282 40.584L264.204 39.2734L263.34 32.0734L252.418 33.384ZM253.282 40.584V51.584H253.762V40.584V29.584H253.282V40.584ZM253.762 40.584L263.378 45.9261C263.513 45.682 263.943 45.0491 265.339 44.2376L259.81 34.728L254.281 25.2184C250.173 27.6069 246.571 30.878 244.146 35.2419L253.762 40.584ZM259.81 34.728L265.502 44.1411C266.345 43.6309 267.5 43.232 269.314 43.232V32.232V21.232C263.96 21.232 258.779 22.4971 254.118 25.3149L259.81 34.728ZM269.314 32.232V43.232C272.908 43.232 273.712 44.2089 273.92 44.458L282.37 37.416L290.82 30.374C285.268 23.7111 277.368 21.232 269.314 21.232V32.232ZM282.37 37.416L273.996 44.5491C274.636 45.3004 275.786 47.3543 275.786 52.392H286.786H297.786C297.786 44.3737 295.992 36.4436 290.744 30.2829L282.37 37.416ZM286.786 52.392H275.786V81H286.786H297.786V52.392H286.786ZM286.786 81V70H278.722V81V92H286.786V81ZM278.722 81H289.722V53.352H278.722H267.722V81H278.722ZM278.722 53.352H289.722C289.722 47.6417 288.477 41.6304 284.596 36.6783L275.938 43.464L267.28 50.2497C267.111 50.0336 267.722 50.6143 267.722 53.352H278.722ZM275.938 43.464L284.682 36.7906C280.187 30.8998 273.592 28.816 267.298 28.816V39.816V50.816C268.134 50.816 268.313 50.9486 268.107 50.8617C267.998 50.8158 267.83 50.7278 267.642 50.5825C267.452 50.4364 267.301 50.2777 267.194 50.1374L275.938 43.464ZM267.298 39.816V28.816C260.662 28.816 254.647 31.2467 249.92 35.9738L257.698 43.752L265.476 51.5302C265.997 51.0093 266.382 50.816 267.298 50.816V39.816ZM257.698 43.752L250.016 35.8784C244.645 41.1193 242.762 48.0661 242.762 54.888H253.762H264.762C264.762 53.4218 264.962 52.5603 265.117 52.1217C265.254 51.7359 265.363 51.6419 265.38 51.6256L257.698 43.752ZM253.762 54.888H242.762V81H253.762H264.762V54.888H253.762ZM253.762 81V70H245.698V81V92H253.762V81ZM318.525 79.176L310.929 87.1329L318.525 79.176ZM318.525 69.288L310.929 61.3311V61.3311L318.525 69.288ZM328.701 69.288L321.105 77.2449L328.701 69.288ZM328.701 79.176L321.105 71.2191L321.105 71.2191L328.701 79.176ZM323.612 81.192V70.192C323.886 70.192 324.354 70.2433 324.905 70.4615C325.459 70.6812 325.869 70.9798 326.12 71.2191L318.525 79.176L310.929 87.1329C314.427 90.4717 318.86 92.192 323.612 92.192V81.192ZM318.525 79.176L326.12 71.2191C326.418 71.5035 326.793 71.9777 327.071 72.634C327.347 73.2857 327.413 73.8487 327.413 74.184H316.413H305.413C305.413 79.1087 307.3 83.6685 310.929 87.1329L318.525 79.176ZM316.413 74.184H327.413C327.413 74.6009 327.329 75.2097 327.041 75.877C326.754 76.541 326.382 76.9949 326.12 77.2449L318.525 69.288L310.929 61.3311C307.381 64.7183 305.413 69.2113 305.413 74.184H316.413ZM318.525 69.288L326.12 77.2449C325.869 77.4842 325.459 77.7828 324.905 78.0025C324.354 78.2207 323.886 78.272 323.612 78.272V67.272V56.272C318.86 56.272 314.427 57.9923 310.929 61.3311L318.525 69.288ZM323.612 67.272V78.272C323.339 78.272 322.871 78.2207 322.32 78.0025C321.766 77.7828 321.356 77.4842 321.105 77.2449L328.701 69.288L336.296 61.3311C332.798 57.9923 328.365 56.272 323.612 56.272V67.272ZM328.701 69.288L321.105 77.2449C320.843 76.9949 320.471 76.541 320.184 75.877C319.896 75.2097 319.812 74.6009 319.812 74.184H330.812H341.812C341.812 69.2113 339.844 64.7183 336.296 61.3311L328.701 69.288ZM330.812 74.184H319.812C319.812 73.8487 319.878 73.2857 320.154 72.634C320.432 71.9777 320.807 71.5035 321.105 71.2191L328.701 79.176L336.296 87.1329C339.925 83.6685 341.812 79.1087 341.812 74.184H330.812ZM328.701 79.176L321.105 71.2191C321.356 70.9798 321.766 70.6812 322.32 70.4615C322.871 70.2433 323.339 70.192 323.612 70.192V81.192V92.192C328.365 92.192 332.798 90.4717 336.296 87.1329L328.701 79.176Z" fill="#161617" mask="url(#path-1-outside-1_6_8)"/>
</svg>
